<svg xmlns="http://www.w3.org/2000/svg" viewBox="0 0 420 30" width="420" height="30">
  <defs>
    <style>
      rect{shape-rendering:crispEdges}
      .bt{transform-box:fill-box;transform-origin:center;animation:beat var(--d,4s) ease-in-out var(--dl,0s) infinite}
      .sp{transform-box:fill-box;transform-origin:center;animation:tw var(--d,3s) ease-in-out var(--dl,0s) infinite}
      @keyframes beat{0%,100%{transform:scale(1)}50%{transform:scale(1.18)}}
      @keyframes tw{0%,100%{opacity:.3;transform:scale(.8) rotate(0)}50%{opacity:1;transform:scale(1.15) rotate(45deg)}}
    </style>
  </defs>
  <g class="sp" style="--d:3.2s;--dl:0s" transform="translate(60 15)" fill="#F3C4D6"><rect x="-1.5" y="-4.5" width="3" height="3"/><rect x="-1.5" y="1.5" width="3" height="3"/><rect x="-4.5" y="-1.5" width="3" height="3"/><rect x="1.5" y="-1.5" width="3" height="3"/><rect x="-1.5" y="-1.5" width="3" height="3"/></g>
  <g class="sp" style="--d:2.8s;--dl:0.6s" transform="translate(120 15)" fill="#FFB3CD"><rect x="-2" y="-6" width="4" height="4"/><rect x="-2" y="2" width="4" height="4"/><rect x="-6" y="-2" width="4" height="4"/><rect x="2" y="-2" width="4" height="4"/><rect x="-2" y="-2" width="4" height="4"/></g>
  <g class="bt" style="--d:4.2s;--dl:0.2s" transform="translate(136 7)" fill="#F3C4D6"><rect x="4" y="0" width="4" height="4"/><rect x="8" y="0" width="4" height="4"/><rect x="16" y="0" width="4" height="4"/><rect x="20" y="0" width="4" height="4"/><rect x="0" y="4" width="4" height="4"/><rect x="4" y="4" width="4" height="4"/><rect x="8" y="4" width="4" height="4"/><rect x="12" y="4" width="4" height="4"/><rect x="16" y="4" width="4" height="4"/><rect x="20" y="4" width="4" height="4"/><rect x="24" y="4" width="4" height="4"/><rect x="0" y="8" width="4" height="4"/><rect x="4" y="8" width="4" height="4"/><rect x="8" y="8" width="4" height="4"/><rect x="12" y="8" width="4" height="4"/><rect x="16" y="8" width="4" height="4"/><rect x="20" y="8" width="4" height="4"/><rect x="24" y="8" width="4" height="4"/><rect x="4" y="12" width="4" height="4"/><rect x="8" y="12" width="4" height="4"/><rect x="12" y="12" width="4" height="4"/><rect x="16" y="12" width="4" height="4"/><rect x="20" y="12" width="4" height="4"/><rect x="8" y="16" width="4" height="4"/><rect x="12" y="16" width="4" height="4"/><rect x="16" y="16" width="4" height="4"/><rect x="12" y="20" width="4" height="4"/></g>
  <g class="bt" style="--d:4.6s;--dl:0s" transform="translate(196 4)" fill="#EEA9C5"><rect x="5" y="0" width="5" height="5"/><rect x="10" y="0" width="5" height="5"/><rect x="20" y="0" width="5" height="5"/><rect x="25" y="0" width="5" height="5"/><rect x="0" y="5" width="5" height="5"/><rect x="5" y="5" width="5" height="5"/><rect x="10" y="5" width="5" height="5"/><rect x="15" y="5" width="5" height="5"/><rect x="20" y="5" width="5" height="5"/><rect x="25" y="5" width="5" height="5"/><rect x="30" y="5" width="5" height="5"/><rect x="0" y="10" width="5" height="5"/><rect x="5" y="10" width="5" height="5"/><rect x="10" y="10" width="5" height="5"/><rect x="15" y="10" width="5" height="5"/><rect x="20" y="10" width="5" height="5"/><rect x="25" y="10" width="5" height="5"/><rect x="30" y="10" width="5" height="5"/><rect x="5" y="15" width="5" height="5"/><rect x="10" y="15" width="5" height="5"/><rect x="15" y="15" width="5" height="5"/><rect x="20" y="15" width="5" height="5"/><rect x="25" y="15" width="5" height="5"/><rect x="10" y="20" width="5" height="5"/><rect x="15" y="20" width="5" height="5"/><rect x="20" y="20" width="5" height="5"/><rect x="15" y="25" width="5" height="5"/></g>
  <g class="bt" style="--d:4s;--dl:0.9s" transform="translate(256 7)" fill="#F3C4D6"><rect x="4" y="0" width="4" height="4"/><rect x="8" y="0" width="4" height="4"/><rect x="16" y="0" width="4" height="4"/><rect x="20" y="0" width="4" height="4"/><rect x="0" y="4" width="4" height="4"/><rect x="4" y="4" width="4" height="4"/><rect x="8" y="4" width="4" height="4"/><rect x="12" y="4" width="4" height="4"/><rect x="16" y="4" width="4" height="4"/><rect x="20" y="4" width="4" height="4"/><rect x="24" y="4" width="4" height="4"/><rect x="0" y="8" width="4" height="4"/><rect x="4" y="8" width="4" height="4"/><rect x="8" y="8" width="4" height="4"/><rect x="12" y="8" width="4" height="4"/><rect x="16" y="8" width="4" height="4"/><rect x="20" y="8" width="4" height="4"/><rect x="24" y="8" width="4" height="4"/><rect x="4" y="12" width="4" height="4"/><rect x="8" y="12" width="4" height="4"/><rect x="12" y="12" width="4" height="4"/><rect x="16" y="12" width="4" height="4"/><rect x="20" y="12" width="4" height="4"/><rect x="8" y="16" width="4" height="4"/><rect x="12" y="16" width="4" height="4"/><rect x="16" y="16" width="4" height="4"/><rect x="12" y="20" width="4" height="4"/></g>
  <g class="sp" style="--d:3s;--dl:0.3s" transform="translate(300 15)" fill="#FFB3CD"><rect x="-2" y="-6" width="4" height="4"/><rect x="-2" y="2" width="4" height="4"/><rect x="-6" y="-2" width="4" height="4"/><rect x="2" y="-2" width="4" height="4"/><rect x="-2" y="-2" width="4" height="4"/></g>
  <g class="sp" style="--d:3.4s;--dl:1.1s" transform="translate(360 15)" fill="#F3C4D6"><rect x="-1.5" y="-4.5" width="3" height="3"/><rect x="-1.5" y="1.5" width="3" height="3"/><rect x="-4.5" y="-1.5" width="3" height="3"/><rect x="1.5" y="-1.5" width="3" height="3"/><rect x="-1.5" y="-1.5" width="3" height="3"/></g>
</svg>
